<svg xmlns="http://www.w3.org/2000/svg" viewBox="80 -15 110 160" width="140" height="140">
  <defs>
    <linearGradient id="bg" x1="0" y1="0" x2="0" y2="1"><stop offset="0%" stop-color="#2548a8"/><stop offset="100%" stop-color="#162044"/></linearGradient>
    <linearGradient id="fc" x1="0" y1="0" x2="0" y2="1"><stop offset="0%" stop-color="#FDE68A"/><stop offset="100%" stop-color="#FCD34D"/></linearGradient>
    <linearGradient id="ti" x1="0" y1="0" x2="0" y2="1"><stop offset="0%" stop-color="#F43F5E"/><stop offset="100%" stop-color="#DC2626"/></linearGradient>
  </defs>
  <rect x="114" y="105" width="18" height="24" rx="3" fill="#2548a8" stroke="#162044" stroke-width="0.6"/>
  <rect x="110" y="126" width="24" height="10" rx="4" fill="#162044"/>
  <rect x="138" y="105" width="18" height="24" rx="3" fill="#2548a8" stroke="#162044" stroke-width="0.6"/>
  <rect x="136" y="126" width="24" height="10" rx="4" fill="#162044"/>
  <rect x="108" y="58" width="54" height="50" rx="4" fill="url(#bg)" stroke="#162044" stroke-width="0.6"/>
  <circle cx="122" cy="58" r="4" fill="#3B82F6" stroke="#2548a8" stroke-width="0.5"/>
  <circle cx="135" cy="58" r="4" fill="#3B82F6" stroke="#2548a8" stroke-width="0.5"/>
  <circle cx="148" cy="58" r="4" fill="#3B82F6" stroke="#2548a8" stroke-width="0.5"/>
  <path d="M122 62 L135 72 L148 62" fill="none" stroke="white" stroke-width="2"/>
  <polygon points="132,68 138,68 136,73 134,73" fill="url(#ti)" stroke="#BE123C" stroke-width="0.4"/>
  <polygon points="133,73 137,73 138,92 135,95 132,92" fill="url(#ti)" stroke="#BE123C" stroke-width="0.4"/>
  <rect x="94" y="60" width="16" height="34" rx="4" fill="#2548a8" stroke="#162044" stroke-width="0.6"/>
  <rect x="96" y="91" width="12" height="9" rx="3" fill="#FBBF24" stroke="#D97706" stroke-width="0.6"/>
  <rect x="160" y="60" width="16" height="34" rx="4" fill="#2548a8" stroke="#162044" stroke-width="0.6"/>
  <rect x="162" y="91" width="12" height="9" rx="3" fill="#FBBF24" stroke="#D97706" stroke-width="0.6"/>
  <rect x="160" y="98" width="18" height="14" rx="2" fill="#162044" stroke="#1E293B" stroke-width="0.6"/>
  <rect x="166" y="96" width="6" height="4" rx="1.5" fill="none" stroke="#22D3EE" stroke-width="0.8"/>
  <circle cx="170" cy="105" r="1.5" fill="#22D3EE"/>
  <rect x="126" y="52" width="18" height="8" rx="3" fill="#FCD34D" stroke="#D97706" stroke-width="0.5"/>
  <rect x="116" y="10" width="38" height="44" rx="8" fill="url(#fc)" stroke="#D97706" stroke-width="0.6"/>
  <circle cx="135" cy="10" r="5" fill="#FCD34D" stroke="#D97706" stroke-width="0.6"/>
  <line x1="135" y1="5" x2="135" y2="-8" stroke="#22D3EE" stroke-width="1"/>
  <circle cx="135" cy="-10" r="3" fill="#162044" stroke="#22D3EE" stroke-width="0.6"/>
  <circle cx="135" cy="-10" r="1.5" fill="#22D3EE"/>
  <rect x="122" y="22" width="10" height="8" rx="2" fill="white" stroke="#0F172A" stroke-width="0.8"/>
  <rect x="125" y="24" width="4.5" height="4.5" rx="1" fill="#0F172A"/>
  <rect x="126" y="25" width="2" height="2" fill="#22D3EE"/>
  <rect x="138" y="22" width="10" height="8" rx="2" fill="white" stroke="#0F172A" stroke-width="0.8"/>
  <rect x="141" y="24" width="4.5" height="4.5" rx="1" fill="#0F172A"/>
  <rect x="142" y="25" width="2" height="2" fill="#22D3EE"/>
  <path d="M128 38 Q135 45 142 38" fill="none" stroke="#0F172A" stroke-width="1.4" stroke-linecap="round"/>
</svg>
